{
  "asset": {
    "version": "2.0",
    "generator": "Sketchup glTF Exporter v1.2.6 by Centaur"
  },
  "scene": 0,
  "scenes": [
    {
      "nodes": [
        0
      ]
    }
  ],
  "samplers": [
    {
    }
  ],
  "nodes": [
    {
      "name": "root",
      "children": [
        1
      ]
    },
    {
      "name": "Room",
      "children": [
        2,
        3,
        4,
        5
      ]
    },
    {
      "name": "Marble",
      "mesh": 0
    },
    {
      "name": "GlassThick",
      "mesh": 1
    },
    {
      "name": "AcousticCeilingTiles",
      "mesh": 2
    },
    {
      "name": "BrickBare",
      "mesh": 3
    }
  ],
  "materials": [
    {
      "pbrMetallicRoughness": {
        "baseColorTexture": {
          "index": 0
        },
        "metallicFactor": 0.1,
        "roughnessFactor": 0.9
      },
      "name": "Carrera Marble"
    },
    {
      "pbrMetallicRoughness": {
        "baseColorTexture": {
          "index": 1
        },
        "metallicFactor": 0.1,
        "roughnessFactor": 0.9
      },
      "name": "Translucent Glass Block Dark",
      "alphaMode": "BLEND"
    },
    {
      "pbrMetallicRoughness": {
        "baseColorTexture": {
          "index": 2
        },
        "metallicFactor": 0.1,
        "roughnessFactor": 0.9
      },
      "name": "White Subway Tile"
    },
    {
      "pbrMetallicRoughness": {
        "baseColorTexture": {
          "index": 3
        },
        "metallicFactor": 0.1,
        "roughnessFactor": 0.9
      },
      "name": "Brick Antique 01"
    }
  ],
  "images": [
    {
      "bufferView": 0,
      "mimeType": "image/jpeg"
    },
    {
      "bufferView": 1,
      "mimeType": "image/jpeg"
    },
    {
      "bufferView": 2,
      "mimeType": "image/jpeg"
    },
    {
      "bufferView": 3,
      "mimeType": "image/jpeg"
    }
  ],
  "textures": [
    {
      "source": 0,
      "sampler": 0
    },
    {
      "source": 1,
      "sampler": 0
    },
    {
      "source": 2,
      "sampler": 0
    },
    {
      "source": 3,
      "sampler": 0
    }
  ],
  "meshes": [
    {
      "primitives": [
        {
          "attributes": {
            "POSITION": 0,
            "NORMAL": 1,
            "TEXCOORD_0": 2
          },
          "indices": 3,
          "mode": 4,
          "material": 0
        }
      ]
    },
    {
      "primitives": [
        {
          "attributes": {
            "POSITION": 0,
            "NORMAL": 1,
            "TEXCOORD_0": 2
          },
          "indices": 4,
          "mode": 4,
          "material": 1
        }
      ]
    },
    {
      "primitives": [
        {
          "attributes": {
            "POSITION": 0,
            "NORMAL": 1,
            "TEXCOORD_0": 2
          },
          "indices": 5,
          "mode": 4,
          "material": 2
        }
      ]
    },
    {
      "primitives": [
        {
          "attributes": {
            "POSITION": 0,
            "NORMAL": 1,
            "TEXCOORD_0": 2
          },
          "indices": 6,
          "mode": 4,
          "material": 3
        }
      ]
    }
  ],
  "accessors": [
    {
      "bufferView": 4,
      "componentType": 5126,
      "count": 24,
      "type": "VEC3",
      "min": [
        0.0,
        -1.1021821192326181e-15,
        -18.0
      ],
      "max": [
        15.660977271885345,
        7.000000000000001,
        5.50293231151501
      ]
    },
    {
      "bufferView": 5,
      "componentType": 5126,
      "count": 24,
      "type": "VEC3",
      "min": [
        -0.9507658702069178,
        -1.0,
        -0.943452098607759
      ],
      "max": [
        1.0,
        1.0,
        1.0
      ]
    },
    {
      "bufferView": 6,
      "componentType": 5126,
      "count": 24,
      "type": "VEC2",
      "min": [
        -36.30720210336613,
        -18.68503937007874
      ],
      "max": [
        22.059262919484993,
        7.018079955725072
      ]
    },
    {
      "bufferView": 7,
      "componentType": 5121,
      "count": 6,
      "type": "SCALAR"
    },
    {
      "bufferView": 7,
      "componentType": 5121,
      "count": 12,
      "type": "SCALAR",
      "byteOffset": 6
    },
    {
      "bufferView": 7,
      "componentType": 5121,
      "count": 6,
      "type": "SCALAR",
      "byteOffset": 18
    },
    {
      "bufferView": 7,
      "componentType": 5121,
      "count": 12,
      "type": "SCALAR",
      "byteOffset": 24
    }
  ],
  "bufferViews": [
    {
      "buffer": 0,
      "byteLength": 34577
    },
    {
      "buffer": 0,
      "byteOffset": 34577,
      "byteLength": 8782
    },
    {
      "buffer": 0,
      "byteOffset": 43359,
      "byteLength": 6277
    },
    {
      "buffer": 0,
      "byteOffset": 49636,
      "byteLength": 14904
    },
    {
      "buffer": 0,
      "byteOffset": 64548,
      "byteLength": 288,
      "target": 34962,
      "byteStride": 12
    },
    {
      "buffer": 0,
      "byteOffset": 64836,
      "byteLength": 288,
      "target": 34962,
      "byteStride": 12
    },
    {
      "buffer": 0,
      "byteOffset": 65128,
      "byteLength": 192,
      "target": 34962,
      "byteStride": 8
    },
    {
      "buffer": 0,
      "byteOffset": 65320,
      "byteLength": 36,
      "target": 34963
    }
  ],
  "buffers": [
    {
      "uri": "data:application/octet-stream;base64,",
      "byteLength": 65356
    }
  ]
}