{
  "asset": {
    "version": "2.0",
    "generator": "Sketchup glTF Exporter v1.2.6 by Centaur"
  },
  "scene": 0,
  "scenes": [
    {
      "nodes": [
        0
      ]
    }
  ],
  "samplers": [
    {
    }
  ],
  "nodes": [
    {
      "name": "root",
      "children": [
        1
      ]
    },
    {
      "name": "ImageToStl.com_mdfs",
      "children": [
        2,
        3,
        4,
        5,
        6,
        7,
        8
      ]
    },
    {
      "name": "Plaster",
      "mesh": 0
    },
    {
      "name": "Glass",
      "mesh": 1
    },
    {
      "name": "Wood",
      "mesh": 2
    },
    {
      "name": "Wood",
      "mesh": 3
    },
    {
      "name": "Concrete",
      "mesh": 4
    },
    {
      "name": "Carpet",
      "mesh": 5
    },
    {
      "name": "Concrete",
      "mesh": 6
    }
  ],
  "materials": [
    {
      "pbrMetallicRoughness": {
        "baseColorFactor": [
          0.2176,
          0.2176,
          0.2176,
          1.0
        ],
        "metallicFactor": 0.1,
        "roughnessFactor": 0.9
      },
      "name": "default material",
      "doubleSided": true
    }
  ],
  "meshes": [
    {
      "primitives": [
        {
          "attributes": {
            "POSITION": 0,
            "NORMAL": 1
          },
          "indices": 2,
          "mode": 4,
          "material": 0
        }
      ]
    },
    {
      "primitives": [
        {
          "attributes": {
            "POSITION": 0,
            "NORMAL": 1
          },
          "indices": 3,
          "mode": 4,
          "material": 0
        }
      ]
    },
    {
      "primitives": [
        {
          "attributes": {
            "POSITION": 0,
            "NORMAL": 1
          },
          "indices": 4,
          "mode": 4,
          "material": 0
        }
      ]
    },
    {
      "primitives": [
        {
          "attributes": {
            "POSITION": 0,
            "NORMAL": 1
          },
          "indices": 5,
          "mode": 4,
          "material": 0
        }
      ]
    },
    {
      "primitives": [
        {
          "attributes": {
            "POSITION": 0,
            "NORMAL": 1
          },
          "indices": 6,
          "mode": 4,
          "material": 0
        }
      ]
    },
    {
      "primitives": [
        {
          "attributes": {
            "POSITION": 0,
            "NORMAL": 1
          },
          "indices": 7,
          "mode": 4,
          "material": 0
        }
      ]
    },
    {
      "primitives": [
        {
          "attributes": {
            "POSITION": 0,
            "NORMAL": 1
          },
          "indices": 8,
          "mode": 4,
          "material": 0
        }
      ]
    }
  ],
  "accessors": [
    {
      "bufferView": 0,
      "componentType": 5126,
      "count": 26149,
      "type": "VEC3",
      "min": [
        1.2628942472032754,
        -0.0050800000756988295,
        -12.766720730052594
      ],
      "max": [
        10.17829437437575,
        3.3477198568552757,
        -0.041321011648774206
      ]
    },
    {
      "bufferView": 1,
      "componentType": 5126,
      "count": 26149,
      "type": "VEC3",
      "min": [
        -0.9999999999999999,
        -0.9999999999999999,
        -0.9999999999999999
      ],
      "max": [
        0.9999999999999999,
        0.9999999999999999,
        0.9999999999999999
      ]
    },
    {
      "bufferView": 2,
      "componentType": 5123,
      "count": 108,
      "type": "SCALAR"
    },
    {
      "bufferView": 2,
      "componentType": 5123,
      "count": 36,
      "type": "SCALAR",
      "byteOffset": 216
    },
    {
      "bufferView": 2,
      "componentType": 5123,
      "count": 1608,
      "type": "SCALAR",
      "byteOffset": 288
    },
    {
      "bufferView": 2,
      "componentType": 5123,
      "count": 11040,
      "type": "SCALAR",
      "byteOffset": 3504
    },
    {
      "bufferView": 2,
      "componentType": 5123,
      "count": 6840,
      "type": "SCALAR",
      "byteOffset": 25584
    },
    {
      "bufferView": 2,
      "componentType": 5123,
      "count": 13500,
      "type": "SCALAR",
      "byteOffset": 39264
    },
    {
      "bufferView": 2,
      "componentType": 5123,
      "count": 2736,
      "type": "SCALAR",
      "byteOffset": 66264
    }
  ],
  "bufferViews": [
    {
      "buffer": 0,
      "byteLength": 313788,
      "target": 34962,
      "byteStride": 12
    },
    {
      "buffer": 0,
      "byteOffset": 313788,
      "byteLength": 313788,
      "target": 34962,
      "byteStride": 12
    },
    {
      "buffer": 0,
      "byteOffset": 627576,
      "byteLength": 71736,
      "target": 34963
    }
  ],
  "buffers": [
    {
      "uri": "data:application/octet-stream;base64,",
      "byteLength": 699312
    }
  ]
}