{
  "asset": {
    "version": "2.0",
    "generator": "Sketchup glTF Exporter v1.2.6 by Centaur"
  },
  "scene": 0,
  "scenes": [
    {
      "nodes": [
        0
      ]
    }
  ],
  "samplers": [
    {
    }
  ],
  "nodes": [
    {
      "name": "root",
      "children": [
        1
      ]
    },
    {
      "name": "Room",
      "children": [
        2,
        3
      ]
    },
    {
      "name": "GlassThick",
      "mesh": 0
    },
    {
      "name": "ConcreteBlockCoarse",
      "mesh": 1
    }
  ],
  "materials": [
    {
      "pbrMetallicRoughness": {
        "baseColorFactor": [
          0.1275,
          0.3066,
          0.8513,
          0.5
        ],
        "metallicFactor": 0.1,
        "roughnessFactor": 0.9
      },
      "name": "Translucent Glass Blue",
      "doubleSided": true,
      "alphaMode": "BLEND"
    },
    {
      "pbrMetallicRoughness": {
        "baseColorTexture": {
          "index": 0
        },
        "metallicFactor": 0.1,
        "roughnessFactor": 0.9
      },
      "name": "Rough Square Concrete Block",
      "doubleSided": true
    },
    {
      "pbrMetallicRoughness": {
        "baseColorFactor": [
          0.2176,
          0.2176,
          0.2176,
          1.0
        ],
        "metallicFactor": 0.1,
        "roughnessFactor": 0.9
      },
      "name": "default material",
      "doubleSided": true
    }
  ],
  "images": [
    {
      "bufferView": 0,
      "mimeType": "image/jpeg"
    }
  ],
  "textures": [
    {
      "source": 0,
      "sampler": 0
    }
  ],
  "meshes": [
    {
      "primitives": [
        {
          "attributes": {
            "POSITION": 0,
            "NORMAL": 1
          },
          "indices": 5,
          "mode": 4,
          "material": 0
        }
      ]
    },
    {
      "primitives": [
        {
          "attributes": {
            "POSITION": 2,
            "NORMAL": 3,
            "TEXCOORD_0": 4
          },
          "indices": 6,
          "mode": 4,
          "material": 1
        },
        {
          "attributes": {
            "POSITION": 0,
            "NORMAL": 1
          },
          "indices": 7,
          "mode": 4,
          "material": 2
        }
      ]
    }
  ],
  "accessors": [
    {
      "bufferView": 1,
      "componentType": 5126,
      "count": 17,
      "type": "VEC3",
      "min": [
        -5.5563381391691085,
        -1.1634144591899855e-15,
        -19.0
      ],
      "max": [
        3.7646689853783393,
        6.420000000000001,
        4.610389822792893e-16
      ]
    },
    {
      "bufferView": 2,
      "componentType": 5126,
      "count": 17,
      "type": "VEC3",
      "min": [
        -1.0,
        -1.6603601709090754e-16,
        -1.0
      ],
      "max": [
        0.9598005381945112,
        6.123233995736766e-17,
        1.0
      ]
    },
    {
      "bufferView": 3,
      "componentType": 5126,
      "count": 27,
      "type": "VEC3",
      "min": [
        -5.5563381391691085,
        -1.1634144591899855e-15,
        -19.0
      ],
      "max": [
        3.7646689853783393,
        6.420000000000001,
        9.220779645585782e-16
      ]
    },
    {
      "bufferView": 4,
      "componentType": 5126,
      "count": 27,
      "type": "VEC3",
      "min": [
        -1.0,
        -1.0,
        -1.0
      ],
      "max": [
        7.727864132596257e-16,
        1.0,
        1.0
      ]
    },
    {
      "bufferView": 5,
      "componentType": 5126,
      "count": 27,
      "type": "VEC2",
      "min": [
        -20.778652668416445,
        -19.778652668416445
      ],
      "max": [
        6.07648527905633,
        1.0
      ]
    },
    {
      "bufferView": 6,
      "componentType": 5121,
      "count": 12,
      "type": "SCALAR"
    },
    {
      "bufferView": 7,
      "componentType": 5121,
      "count": 45,
      "type": "SCALAR"
    },
    {
      "bufferView": 6,
      "componentType": 5121,
      "count": 9,
      "type": "SCALAR",
      "byteOffset": 12
    }
  ],
  "bufferViews": [
    {
      "buffer": 0,
      "byteLength": 83289
    },
    {
      "buffer": 0,
      "byteOffset": 83292,
      "byteLength": 204,
      "target": 34962,
      "byteStride": 12
    },
    {
      "buffer": 0,
      "byteOffset": 83496,
      "byteLength": 204,
      "target": 34962,
      "byteStride": 12
    },
    {
      "buffer": 0,
      "byteOffset": 83700,
      "byteLength": 324,
      "target": 34962,
      "byteStride": 12
    },
    {
      "buffer": 0,
      "byteOffset": 84024,
      "byteLength": 324,
      "target": 34962,
      "byteStride": 12
    },
    {
      "buffer": 0,
      "byteOffset": 84352,
      "byteLength": 216,
      "target": 34962,
      "byteStride": 8
    },
    {
      "buffer": 0,
      "byteOffset": 84568,
      "byteLength": 21,
      "target": 34963
    },
    {
      "buffer": 0,
      "byteOffset": 84589,
      "byteLength": 45,
      "target": 34963
    }
  ],
  "buffers": [
    {
      "uri": "data:application/octet-stream;base64,",
      "byteLength": 84634
    }
  ]
}