{
  "asset": {
    "version": "2.0",
    "generator": "Sketchup glTF Exporter v1.2.6 by Centaur"
  },
  "scene": 0,
  "scenes": [
    {
      "nodes": [
        0
      ]
    }
  ],
  "samplers": [
    {
    }
  ],
  "nodes": [
    {
      "name": "root",
      "children": [
        1
      ]
    },
    {
      "name": "Room",
      "children": [
        2,
        3,
        4,
        5,
        6,
        7
      ]
    },
    {
      "name": "NoAbsorption",
      "mesh": 0
    },
    {
      "name": "Glass",
      "mesh": 1
    },
    {
      "name": "Glass",
      "mesh": 2
    },
    {
      "name": "Brick",
      "mesh": 3
    },
    {
      "name": "Concrete",
      "mesh": 4
    },
    {
      "name": "Gravel",
      "mesh": 5
    }
  ],
  "materials": [
    {
      "pbrMetallicRoughness": {
        "baseColorFactor": [
          0.2176,
          0.2176,
          0.2176,
          1.0
        ],
        "metallicFactor": 0.1,
        "roughnessFactor": 0.9
      },
      "name": "default material",
      "doubleSided": true
    }
  ],
  "meshes": [
    {
      "primitives": [
        {
          "attributes": {
            "POSITION": 0,
            "NORMAL": 1
          },
          "indices": 2,
          "mode": 4,
          "material": 0
        }
      ]
    },
    {
      "primitives": [
        {
          "attributes": {
            "POSITION": 0,
            "NORMAL": 1
          },
          "indices": 3,
          "mode": 4,
          "material": 0
        }
      ]
    },
    {
      "primitives": [
        {
          "attributes": {
            "POSITION": 0,
            "NORMAL": 1
          },
          "indices": 4,
          "mode": 4,
          "material": 0
        }
      ]
    },
    {
      "primitives": [
        {
          "attributes": {
            "POSITION": 0,
            "NORMAL": 1
          },
          "indices": 5,
          "mode": 4,
          "material": 0
        }
      ]
    },
    {
      "primitives": [
        {
          "attributes": {
            "POSITION": 0,
            "NORMAL": 1
          },
          "indices": 6,
          "mode": 4,
          "material": 0
        }
      ]
    },
    {
      "primitives": [
        {
          "attributes": {
            "POSITION": 0,
            "NORMAL": 1
          },
          "indices": 7,
          "mode": 4,
          "material": 0
        }
      ]
    }
  ],
  "accessors": [
    {
      "bufferView": 0,
      "componentType": 5126,
      "count": 24,
      "type": "VEC3",
      "min": [
        0.0,
        -3.061616997868383e-16,
        -5.0
      ],
      "max": [
        5.000000000000001,
        5.0,
        1.2246467991473533e-15
      ]
    },
    {
      "bufferView": 1,
      "componentType": 5126,
      "count": 24,
      "type": "VEC3",
      "min": [
        -1.0,
        -1.0,
        -1.0
      ],
      "max": [
        1.0,
        1.0,
        1.0
      ]
    },
    {
      "bufferView": 2,
      "componentType": 5121,
      "count": 6,
      "type": "SCALAR"
    },
    {
      "bufferView": 2,
      "componentType": 5121,
      "count": 6,
      "type": "SCALAR",
      "byteOffset": 6
    },
    {
      "bufferView": 2,
      "componentType": 5121,
      "count": 6,
      "type": "SCALAR",
      "byteOffset": 12
    },
    {
      "bufferView": 2,
      "componentType": 5121,
      "count": 6,
      "type": "SCALAR",
      "byteOffset": 18
    },
    {
      "bufferView": 2,
      "componentType": 5121,
      "count": 6,
      "type": "SCALAR",
      "byteOffset": 24
    },
    {
      "bufferView": 2,
      "componentType": 5121,
      "count": 6,
      "type": "SCALAR",
      "byteOffset": 30
    }
  ],
  "bufferViews": [
    {
      "buffer": 0,
      "byteLength": 288,
      "target": 34962,
      "byteStride": 12
    },
    {
      "buffer": 0,
      "byteOffset": 288,
      "byteLength": 288,
      "target": 34962,
      "byteStride": 12
    },
    {
      "buffer": 0,
      "byteOffset": 576,
      "byteLength": 36,
      "target": 34963
    }
  ],
  "buffers": [
    {
      "uri": "data:application/octet-stream;base64,",
      "byteLength": 612
    }
  ]
}