{
  "asset": {
    "version": "2.0",
    "generator": "Sketchup glTF Exporter v1.2.6 by Centaur"
  },
  "scene": 0,
  "scenes": [
    {
      "nodes": [
        0
      ]
    }
  ],
  "samplers": [
    {
    }
  ],
  "nodes": [
    {
      "name": "root",
      "children": [
        1
      ]
    },
    {
      "name": "Room",
      "children": [
        2,
        3,
        4,
        5,
        6,
        7,
        8,
        9,
        10,
        11,
        12,
        13,
        14,
        15,
        16
      ],
      "mesh": 15
    },
    {
      "name": "GlassThin",
      "mesh": 0
    },
    {
      "name": "GlassThin",
      "mesh": 1
    },
    {
      "name": "PolishedConcreteOrTile",
      "mesh": 2
    },
    {
      "name": "AcousticCeilingTiles",
      "mesh": 3
    },
    {
      "name": "PolishedConcreteOrTile",
      "mesh": 4
    },
    {
      "name": "Transparent",
      "mesh": 5
    },
    {
      "name": "GlassThick",
      "mesh": 6
    },
    {
      "name": "Metal",
      "mesh": 7
    },
    {
      "name": "Metal",
      "mesh": 8
    },
    {
      "name": "PolishedConcreteOrTile",
      "mesh": 9
    },
    {
      "name": "GlassThick",
      "mesh": 10
    },
    {
      "name": "Transparent",
      "mesh": 11
    },
    {
      "name": "PolishedConcreteOrTile",
      "mesh": 12
    },
    {
      "name": "PolishedConcreteOrTile",
      "mesh": 13
    },
    {
      "name": "GlassThick",
      "mesh": 14
    }
  ],
  "materials": [
    {
      "pbrMetallicRoughness": {
        "baseColorFactor": [
          0.1275,
          0.3066,
          0.8513,
          0.5
        ],
        "metallicFactor": 0.1,
        "roughnessFactor": 0.9
      },
      "name": "Translucent Glass Blue",
      "alphaMode": "BLEND"
    },
    {
      "pbrMetallicRoughness": {
        "baseColorTexture": {
          "index": 0
        },
        "metallicFactor": 0.1,
        "roughnessFactor": 0.9
      },
      "name": "Polished Concrete Old"
    },
    {
      "pbrMetallicRoughness": {
        "baseColorTexture": {
          "index": 1
        },
        "metallicFactor": 0.1,
        "roughnessFactor": 0.9
      },
      "name": "Polished Concrete New"
    },
    {
      "pbrMetallicRoughness": {
        "baseColorTexture": {
          "index": 2
        },
        "metallicFactor": 0.1,
        "roughnessFactor": 0.9
      },
      "name": "Blacktop New"
    },
    {
      "pbrMetallicRoughness": {
        "baseColorTexture": {
          "index": 3
        },
        "metallicFactor": 0.1,
        "roughnessFactor": 0.9
      },
      "name": "Formica Laminate Dark"
    },
    {
      "pbrMetallicRoughness": {
        "baseColorTexture": {
          "index": 4
        },
        "metallicFactor": 0.1,
        "roughnessFactor": 0.9
      },
      "name": "Translucent Glass Corrugated",
      "alphaMode": "BLEND"
    },
    {
      "pbrMetallicRoughness": {
        "baseColorFactor": [
          0.2176,
          0.2176,
          0.2176,
          1.0
        ],
        "metallicFactor": 0.1,
        "roughnessFactor": 0.9
      },
      "name": "default material",
      "doubleSided": true
    }
  ],
  "images": [
    {
      "bufferView": 0,
      "mimeType": "image/jpeg"
    },
    {
      "bufferView": 1,
      "mimeType": "image/jpeg"
    },
    {
      "bufferView": 2,
      "mimeType": "image/jpeg"
    },
    {
      "bufferView": 3,
      "mimeType": "image/jpeg"
    },
    {
      "bufferView": 4,
      "mimeType": "image/jpeg"
    }
  ],
  "textures": [
    {
      "source": 0,
      "sampler": 0
    },
    {
      "source": 1,
      "sampler": 0
    },
    {
      "source": 2,
      "sampler": 0
    },
    {
      "source": 3,
      "sampler": 0
    },
    {
      "source": 4,
      "sampler": 0
    }
  ],
  "meshes": [
    {
      "primitives": [
        {
          "attributes": {
            "POSITION": 0,
            "NORMAL": 1
          },
          "indices": 5,
          "mode": 4,
          "material": 0
        }
      ]
    },
    {
      "primitives": [
        {
          "attributes": {
            "POSITION": 0,
            "NORMAL": 1
          },
          "indices": 6,
          "mode": 4,
          "material": 0
        }
      ]
    },
    {
      "primitives": [
        {
          "attributes": {
            "POSITION": 2,
            "NORMAL": 3,
            "TEXCOORD_0": 4
          },
          "indices": 7,
          "mode": 4,
          "material": 1
        }
      ]
    },
    {
      "primitives": [
        {
          "attributes": {
            "POSITION": 2,
            "NORMAL": 3,
            "TEXCOORD_0": 4
          },
          "indices": 8,
          "mode": 4,
          "material": 1
        }
      ]
    },
    {
      "primitives": [
        {
          "attributes": {
            "POSITION": 2,
            "NORMAL": 3,
            "TEXCOORD_0": 4
          },
          "indices": 9,
          "mode": 4,
          "material": 2
        }
      ]
    },
    {
      "primitives": [
        {
          "attributes": {
            "POSITION": 0,
            "NORMAL": 1
          },
          "indices": 10,
          "mode": 4,
          "material": 0
        }
      ]
    },
    {
      "primitives": [
        {
          "attributes": {
            "POSITION": 0,
            "NORMAL": 1
          },
          "indices": 11,
          "mode": 4,
          "material": 0
        }
      ]
    },
    {
      "primitives": [
        {
          "attributes": {
            "POSITION": 2,
            "NORMAL": 3,
            "TEXCOORD_0": 4
          },
          "indices": 12,
          "mode": 4,
          "material": 3
        }
      ]
    },
    {
      "primitives": [
        {
          "attributes": {
            "POSITION": 2,
            "NORMAL": 3,
            "TEXCOORD_0": 4
          },
          "indices": 13,
          "mode": 4,
          "material": 3
        }
      ]
    },
    {
      "primitives": [
        {
          "attributes": {
            "POSITION": 2,
            "NORMAL": 3,
            "TEXCOORD_0": 4
          },
          "indices": 14,
          "mode": 4,
          "material": 4
        }
      ]
    },
    {
      "primitives": [
        {
          "attributes": {
            "POSITION": 0,
            "NORMAL": 1
          },
          "indices": 15,
          "mode": 4,
          "material": 0
        }
      ]
    },
    {
      "primitives": [
        {
          "attributes": {
            "POSITION": 0,
            "NORMAL": 1
          },
          "indices": 16,
          "mode": 4,
          "material": 0
        }
      ]
    },
    {
      "primitives": [
        {
          "attributes": {
            "POSITION": 2,
            "NORMAL": 3,
            "TEXCOORD_0": 4
          },
          "indices": 17,
          "mode": 4,
          "material": 4
        }
      ]
    },
    {
      "primitives": [
        {
          "attributes": {
            "POSITION": 2,
            "NORMAL": 3,
            "TEXCOORD_0": 4
          },
          "indices": 18,
          "mode": 4,
          "material": 4
        },
        {
          "attributes": {
            "POSITION": 2,
            "NORMAL": 3,
            "TEXCOORD_0": 4
          },
          "indices": 19,
          "mode": 4,
          "material": 2
        }
      ]
    },
    {
      "primitives": [
        {
          "attributes": {
            "POSITION": 2,
            "NORMAL": 3,
            "TEXCOORD_0": 4
          },
          "indices": 20,
          "mode": 4,
          "material": 5
        }
      ]
    },
    {
      "primitives": [
        {
          "attributes": {
            "POSITION": 0,
            "NORMAL": 1
          },
          "indices": 21,
          "mode": 4,
          "material": 6
        },
        {
          "attributes": {
            "POSITION": 2,
            "NORMAL": 3,
            "TEXCOORD_0": 4
          },
          "indices": 22,
          "mode": 4,
          "material": 1
        }
      ]
    }
  ],
  "accessors": [
    {
      "bufferView": 5,
      "componentType": 5126,
      "count": 83,
      "type": "VEC3",
      "min": [
        -3.8346401402045947e-50,
        -5.51091059616309e-16,
        -9.0
      ],
      "max": [
        29.700000000000014,
        7.500000000000012,
        7.079913462898421e-15
      ]
    },
    {
      "bufferView": 6,
      "componentType": 5126,
      "count": 83,
      "type": "VEC3",
      "min": [
        -2.4492935982947064e-16,
        -1.0,
        -1.0
      ],
      "max": [
        1.0,
        1.0,
        1.0
      ]
    },
    {
      "bufferView": 7,
      "componentType": 5126,
      "count": 335,
      "type": "VEC3",
      "min": [
        0.0,
        -5.51091059616309e-16,
        -9.0
      ],
      "max": [
        29.700000000000014,
        10.6,
        7.079913462898421e-15
      ]
    },
    {
      "bufferView": 8,
      "componentType": 5126,
      "count": 335,
      "type": "VEC3",
      "min": [
        -1.0,
        -1.0,
        -1.0
      ],
      "max": [
        1.0,
        1.0,
        1.0
      ]
    },
    {
      "bufferView": 9,
      "componentType": 5126,
      "count": 335,
      "type": "VEC2",
      "min": [
        -97.44094488188976,
        -28.52755905511811
      ],
      "max": [
        32.480314960629926,
        1.0
      ]
    },
    {
      "bufferView": 10,
      "componentType": 5121,
      "count": 6,
      "type": "SCALAR"
    },
    {
      "bufferView": 10,
      "componentType": 5121,
      "count": 6,
      "type": "SCALAR",
      "byteOffset": 6
    },
    {
      "bufferView": 11,
      "componentType": 5123,
      "count": 12,
      "type": "SCALAR"
    },
    {
      "bufferView": 11,
      "componentType": 5123,
      "count": 12,
      "type": "SCALAR",
      "byteOffset": 24
    },
    {
      "bufferView": 11,
      "componentType": 5123,
      "count": 108,
      "type": "SCALAR",
      "byteOffset": 48
    },
    {
      "bufferView": 10,
      "componentType": 5121,
      "count": 6,
      "type": "SCALAR",
      "byteOffset": 12
    },
    {
      "bufferView": 10,
      "componentType": 5121,
      "count": 60,
      "type": "SCALAR",
      "byteOffset": 18
    },
    {
      "bufferView": 11,
      "componentType": 5123,
      "count": 12,
      "type": "SCALAR",
      "byteOffset": 264
    },
    {
      "bufferView": 11,
      "componentType": 5123,
      "count": 99,
      "type": "SCALAR",
      "byteOffset": 288
    },
    {
      "bufferView": 11,
      "componentType": 5123,
      "count": 27,
      "type": "SCALAR",
      "byteOffset": 486
    },
    {
      "bufferView": 10,
      "componentType": 5121,
      "count": 57,
      "type": "SCALAR",
      "byteOffset": 78
    },
    {
      "bufferView": 10,
      "componentType": 5121,
      "count": 6,
      "type": "SCALAR",
      "byteOffset": 135
    },
    {
      "bufferView": 11,
      "componentType": 5123,
      "count": 393,
      "type": "SCALAR",
      "byteOffset": 540
    },
    {
      "bufferView": 11,
      "componentType": 5123,
      "count": 6,
      "type": "SCALAR",
      "byteOffset": 1326
    },
    {
      "bufferView": 11,
      "componentType": 5123,
      "count": 12,
      "type": "SCALAR",
      "byteOffset": 1338
    },
    {
      "bufferView": 11,
      "componentType": 5123,
      "count": 6,
      "type": "SCALAR",
      "byteOffset": 1362
    },
    {
      "bufferView": 10,
      "componentType": 5121,
      "count": 12,
      "type": "SCALAR",
      "byteOffset": 141
    },
    {
      "bufferView": 11,
      "componentType": 5123,
      "count": 6,
      "type": "SCALAR",
      "byteOffset": 1374
    }
  ],
  "bufferViews": [
    {
      "buffer": 0,
      "byteLength": 42181
    },
    {
      "buffer": 0,
      "byteOffset": 42181,
      "byteLength": 14768
    },
    {
      "buffer": 0,
      "byteOffset": 56949,
      "byteLength": 59980
    },
    {
      "buffer": 0,
      "byteOffset": 116929,
      "byteLength": 23228
    },
    {
      "buffer": 0,
      "byteOffset": 140157,
      "byteLength": 3270
    },
    {
      "buffer": 0,
      "byteOffset": 143436,
      "byteLength": 996,
      "target": 34962,
      "byteStride": 12
    },
    {
      "buffer": 0,
      "byteOffset": 144432,
      "byteLength": 996,
      "target": 34962,
      "byteStride": 12
    },
    {
      "buffer": 0,
      "byteOffset": 145428,
      "byteLength": 4020,
      "target": 34962,
      "byteStride": 12
    },
    {
      "buffer": 0,
      "byteOffset": 149448,
      "byteLength": 4020,
      "target": 34962,
      "byteStride": 12
    },
    {
      "buffer": 0,
      "byteOffset": 153472,
      "byteLength": 2680,
      "target": 34962,
      "byteStride": 8
    },
    {
      "buffer": 0,
      "byteOffset": 156152,
      "byteLength": 153,
      "target": 34963
    },
    {
      "buffer": 0,
      "byteOffset": 156306,
      "byteLength": 1386,
      "target": 34963
    }
  ],
  "buffers": [
    {
      "uri": "data:application/octet-stream;base64,",
      "byteLength": 157692
    }
  ]
}