{
  "asset": {
    "version": "2.0",
    "generator": "Sketchup glTF Exporter v1.2.6 by Centaur"
  },
  "scene": 0,
  "scenes": [
    {
      "nodes": [
        0
      ]
    }
  ],
  "samplers": [
    {
    }
  ],
  "nodes": [
    {
      "name": "root",
      "children": [
        1
      ]
    },
    {
      "name": "Room",
      "children": [
        2,
        3,
        4
      ]
    },
    {
      "name": "GlassThick",
      "mesh": 0
    },
    {
      "name": "WoodPanel",
      "mesh": 1
    },
    {
      "name": "BrickBare",
      "mesh": 2
    }
  ],
  "materials": [
    {
      "pbrMetallicRoughness": {
        "baseColorTexture": {
          "index": 0
        },
        "metallicFactor": 0.1,
        "roughnessFactor": 0.9
      },
      "name": "Stone Marble"
    },
    {
      "pbrMetallicRoughness": {
        "baseColorTexture": {
          "index": 1
        },
        "metallicFactor": 0.1,
        "roughnessFactor": 0.9
      },
      "name": "Wood Board Cork",
      "doubleSided": true
    },
    {
      "pbrMetallicRoughness": {
        "baseColorTexture": {
          "index": 2
        },
        "metallicFactor": 0.1,
        "roughnessFactor": 0.9
      },
      "name": "Wood Cherry Original"
    },
    {
      "pbrMetallicRoughness": {
        "baseColorTexture": {
          "index": 3
        },
        "metallicFactor": 0.1,
        "roughnessFactor": 0.9
      },
      "name": "Wood Floor Light"
    },
    {
      "pbrMetallicRoughness": {
        "baseColorTexture": {
          "index": 4
        },
        "metallicFactor": 0.1,
        "roughnessFactor": 0.9
      },
      "name": "Basic Tile"
    },
    {
      "pbrMetallicRoughness": {
        "baseColorTexture": {
          "index": 5
        },
        "metallicFactor": 0.1,
        "roughnessFactor": 0.9
      },
      "name": "Wood Floor Dark"
    },
    {
      "pbrMetallicRoughness": {
        "baseColorTexture": {
          "index": 6
        },
        "metallicFactor": 0.1,
        "roughnessFactor": 0.9
      },
      "name": "Wood Bamboo"
    },
    {
      "pbrMetallicRoughness": {
        "baseColorTexture": {
          "index": 7
        },
        "metallicFactor": 0.1,
        "roughnessFactor": 0.9
      },
      "name": "Granite Dark Gray"
    },
    {
      "pbrMetallicRoughness": {
        "baseColorTexture": {
          "index": 8
        },
        "metallicFactor": 0.1,
        "roughnessFactor": 0.9
      },
      "name": "Concrete Tile"
    },
    {
      "pbrMetallicRoughness": {
        "baseColorTexture": {
          "index": 9
        },
        "metallicFactor": 0.1,
        "roughnessFactor": 0.9
      },
      "name": "Granite Brown"
    },
    {
      "pbrMetallicRoughness": {
        "baseColorTexture": {
          "index": 10
        },
        "metallicFactor": 0.1,
        "roughnessFactor": 0.9
      },
      "name": "Granite Light Gray"
    },
    {
      "pbrMetallicRoughness": {
        "baseColorTexture": {
          "index": 11
        },
        "metallicFactor": 0.1,
        "roughnessFactor": 0.9
      },
      "name": "Sandstone"
    },
    {
      "pbrMetallicRoughness": {
        "baseColorTexture": {
          "index": 12
        },
        "metallicFactor": 0.1,
        "roughnessFactor": 0.9
      },
      "name": "Carrera Marble"
    }
  ],
  "images": [
    {
      "bufferView": 0,
      "mimeType": "image/jpeg"
    },
    {
      "bufferView": 1,
      "mimeType": "image/jpeg"
    },
    {
      "bufferView": 2,
      "mimeType": "image/jpeg"
    },
    {
      "bufferView": 3,
      "mimeType": "image/jpeg"
    },
    {
      "bufferView": 4,
      "mimeType": "image/jpeg"
    },
    {
      "bufferView": 5,
      "mimeType": "image/jpeg"
    },
    {
      "bufferView": 6,
      "mimeType": "image/jpeg"
    },
    {
      "bufferView": 7,
      "mimeType": "image/jpeg"
    },
    {
      "bufferView": 8,
      "mimeType": "image/jpeg"
    },
    {
      "bufferView": 9,
      "mimeType": "image/jpeg"
    },
    {
      "bufferView": 10,
      "mimeType": "image/jpeg"
    },
    {
      "bufferView": 11,
      "mimeType": "image/jpeg"
    },
    {
      "bufferView": 12,
      "mimeType": "image/jpeg"
    }
  ],
  "textures": [
    {
      "source": 0,
      "sampler": 0
    },
    {
      "source": 1,
      "sampler": 0
    },
    {
      "source": 2,
      "sampler": 0
    },
    {
      "source": 3,
      "sampler": 0
    },
    {
      "source": 4,
      "sampler": 0
    },
    {
      "source": 5,
      "sampler": 0
    },
    {
      "source": 6,
      "sampler": 0
    },
    {
      "source": 7,
      "sampler": 0
    },
    {
      "source": 8,
      "sampler": 0
    },
    {
      "source": 9,
      "sampler": 0
    },
    {
      "source": 10,
      "sampler": 0
    },
    {
      "source": 11,
      "sampler": 0
    },
    {
      "source": 12,
      "sampler": 0
    }
  ],
  "meshes": [
    {
      "primitives": [
        {
          "attributes": {
            "POSITION": 0,
            "NORMAL": 1,
            "TEXCOORD_0": 2
          },
          "indices": 3,
          "mode": 4,
          "material": 0
        }
      ]
    },
    {
      "primitives": [
        {
          "attributes": {
            "POSITION": 0,
            "NORMAL": 1,
            "TEXCOORD_0": 2
          },
          "indices": 4,
          "mode": 4,
          "material": 1
        },
        {
          "attributes": {
            "POSITION": 0,
            "NORMAL": 1,
            "TEXCOORD_0": 2
          },
          "indices": 5,
          "mode": 4,
          "material": 2
        },
        {
          "attributes": {
            "POSITION": 0,
            "NORMAL": 1,
            "TEXCOORD_0": 2
          },
          "indices": 6,
          "mode": 4,
          "material": 3
        },
        {
          "attributes": {
            "POSITION": 0,
            "NORMAL": 1,
            "TEXCOORD_0": 2
          },
          "indices": 7,
          "mode": 4,
          "material": 4
        },
        {
          "attributes": {
            "POSITION": 0,
            "NORMAL": 1,
            "TEXCOORD_0": 2
          },
          "indices": 8,
          "mode": 4,
          "material": 5
        },
        {
          "attributes": {
            "POSITION": 0,
            "NORMAL": 1,
            "TEXCOORD_0": 2
          },
          "indices": 9,
          "mode": 4,
          "material": 6
        }
      ]
    },
    {
      "primitives": [
        {
          "attributes": {
            "POSITION": 0,
            "NORMAL": 1,
            "TEXCOORD_0": 2
          },
          "indices": 10,
          "mode": 4,
          "material": 7
        },
        {
          "attributes": {
            "POSITION": 0,
            "NORMAL": 1,
            "TEXCOORD_0": 2
          },
          "indices": 11,
          "mode": 4,
          "material": 8
        },
        {
          "attributes": {
            "POSITION": 0,
            "NORMAL": 1,
            "TEXCOORD_0": 2
          },
          "indices": 12,
          "mode": 4,
          "material": 9
        },
        {
          "attributes": {
            "POSITION": 0,
            "NORMAL": 1,
            "TEXCOORD_0": 2
          },
          "indices": 13,
          "mode": 4,
          "material": 10
        },
        {
          "attributes": {
            "POSITION": 0,
            "NORMAL": 1,
            "TEXCOORD_0": 2
          },
          "indices": 14,
          "mode": 4,
          "material": 11
        },
        {
          "attributes": {
            "POSITION": 0,
            "NORMAL": 1,
            "TEXCOORD_0": 2
          },
          "indices": 15,
          "mode": 4,
          "material": 12
        }
      ]
    }
  ],
  "accessors": [
    {
      "bufferView": 13,
      "componentType": 5126,
      "count": 74,
      "type": "VEC3",
      "min": [
        0.0,
        -1.285879139104721e-15,
        -21.0
      ],
      "max": [
        20.000000000000007,
        5.0,
        4.898587196589413e-15
      ]
    },
    {
      "bufferView": 14,
      "componentType": 5126,
      "count": 74,
      "type": "VEC3",
      "min": [
        -1.0,
        -1.0,
        -1.0
      ],
      "max": [
        1.0,
        1.0,
        1.0
      ]
    },
    {
      "bufferView": 15,
      "componentType": 5126,
      "count": 74,
      "type": "VEC2",
      "min": [
        -39.37007874015748,
        -33.44881889763779
      ],
      "max": [
        32.808398950131235,
        1.0000000000000002
      ]
    },
    {
      "bufferView": 16,
      "componentType": 5121,
      "count": 18,
      "type": "SCALAR"
    },
    {
      "bufferView": 16,
      "componentType": 5121,
      "count": 18,
      "type": "SCALAR",
      "byteOffset": 18
    },
    {
      "bufferView": 16,
      "componentType": 5121,
      "count": 6,
      "type": "SCALAR",
      "byteOffset": 36
    },
    {
      "bufferView": 16,
      "componentType": 5121,
      "count": 6,
      "type": "SCALAR",
      "byteOffset": 42
    },
    {
      "bufferView": 16,
      "componentType": 5121,
      "count": 18,
      "type": "SCALAR",
      "byteOffset": 48
    },
    {
      "bufferView": 16,
      "componentType": 5121,
      "count": 6,
      "type": "SCALAR",
      "byteOffset": 66
    },
    {
      "bufferView": 16,
      "componentType": 5121,
      "count": 6,
      "type": "SCALAR",
      "byteOffset": 72
    },
    {
      "bufferView": 16,
      "componentType": 5121,
      "count": 6,
      "type": "SCALAR",
      "byteOffset": 78
    },
    {
      "bufferView": 16,
      "componentType": 5121,
      "count": 12,
      "type": "SCALAR",
      "byteOffset": 84
    },
    {
      "bufferView": 16,
      "componentType": 5121,
      "count": 6,
      "type": "SCALAR",
      "byteOffset": 96
    },
    {
      "bufferView": 16,
      "componentType": 5121,
      "count": 6,
      "type": "SCALAR",
      "byteOffset": 102
    },
    {
      "bufferView": 16,
      "componentType": 5121,
      "count": 6,
      "type": "SCALAR",
      "byteOffset": 108
    },
    {
      "bufferView": 16,
      "componentType": 5121,
      "count": 18,
      "type": "SCALAR",
      "byteOffset": 114
    }
  ],
  "bufferViews": [
    {
      "buffer": 0,
      "byteLength": 29431
    },
    {
      "buffer": 0,
      "byteOffset": 29431,
      "byteLength": 9066
    },
    {
      "buffer": 0,
      "byteOffset": 38497,
      "byteLength": 10294
    },
    {
      "buffer": 0,
      "byteOffset": 48791,
      "byteLength": 17984
    },
    {
      "buffer": 0,
      "byteOffset": 66775,
      "byteLength": 40734
    },
    {
      "buffer": 0,
      "byteOffset": 107509,
      "byteLength": 17960
    },
    {
      "buffer": 0,
      "byteOffset": 125469,
      "byteLength": 8600
    },
    {
      "buffer": 0,
      "byteOffset": 134069,
      "byteLength": 31525
    },
    {
      "buffer": 0,
      "byteOffset": 165594,
      "byteLength": 17296
    },
    {
      "buffer": 0,
      "byteOffset": 182890,
      "byteLength": 38836
    },
    {
      "buffer": 0,
      "byteOffset": 221726,
      "byteLength": 27455
    },
    {
      "buffer": 0,
      "byteOffset": 249181,
      "byteLength": 16595
    },
    {
      "buffer": 0,
      "byteOffset": 265776,
      "byteLength": 34577
    },
    {
      "buffer": 0,
      "byteOffset": 300360,
      "byteLength": 888,
      "target": 34962,
      "byteStride": 12
    },
    {
      "buffer": 0,
      "byteOffset": 301248,
      "byteLength": 888,
      "target": 34962,
      "byteStride": 12
    },
    {
      "buffer": 0,
      "byteOffset": 302136,
      "byteLength": 592,
      "target": 34962,
      "byteStride": 8
    },
    {
      "buffer": 0,
      "byteOffset": 302728,
      "byteLength": 132,
      "target": 34963
    }
  ],
  "buffers": [
    {
      "uri": "data:application/octet-stream;base64,",
      "byteLength": 302860
    }
  ]
}